<?xml version="1.0" standalone="no"?>
<!DOCTYPE svg PUBLIC "-//W3C//DTD SVG 20010904//EN"
 "http://www.w3.org/TR/2001/REC-SVG-20010904/DTD/svg10.dtd">
<svg version="1.0" xmlns="http://www.w3.org/2000/svg"
 width="640.000000pt" height="640.000000pt" viewBox="0 0 640.000000 640.000000"
 preserveAspectRatio="xMidYMid meet">

<g transform="translate(0.000000,640.000000) scale(0.100000,-0.100000)"
fill="#000000" stroke="none">
<path d="M3295 5016 c-252 -139 -330 -176 -372 -176 l-43 0 0 -118 0 -117
-217 -131 c-120 -72 -481 -290 -803 -484 -322 -195 -603 -364 -625 -376 -22
-12 -80 -32 -130 -44 -158 -37 -396 -98 -540 -138 -240 -67 -435 -125 -433
-128 2 -1 46 4 98 11 142 21 321 42 595 69 88 9 205 21 260 26 309 31 993 74
1355 85 102 3 242 8 313 11 l127 6 0 -476 c0 -262 2 -476 5 -476 3 0 81 49
427 269 l58 36 0 323 0 322 98 0 c301 0 1007 -36 1387 -70 470 -43 1137 -138
1380 -196 103 -25 -271 105 -550 191 -141 44 -448 128 -561 154 -59 14 -71 21
-629 358 -236 142 -586 353 -777 469 l-348 209 0 212 c0 117 -3 213 -7 213 -5
0 -35 -16 -68 -34z m-85 -801 l0 -385 -75 0 -75 0 0 353 0 353 63 31 c34 18
68 32 75 32 9 1 12 -82 12 -384z m520 158 c118 -71 359 -216 535 -323 176
-106 402 -242 503 -302 101 -61 182 -112 180 -113 -2 -2 -64 9 -138 25 -74 15
-180 36 -235 46 l-100 17 -245 185 c-135 102 -290 220 -345 262 -55 42 -193
147 -307 234 -212 160 -273 225 -135 142 39 -24 169 -102 287 -173z m-852 153
c-2 -1 -154 -116 -338 -256 -184 -139 -351 -265 -370 -279 -19 -14 -110 -83
-202 -153 l-168 -128 -88 -15 c-48 -8 -156 -29 -240 -46 -85 -17 -155 -29
-157 -27 -2 2 182 114 408 251 227 136 579 348 782 471 312 187 371 220 373
203 2 -10 2 -20 0 -21z m724 -178 c118 -90 345 -262 505 -383 161 -121 292
-224 292 -228 1 -5 -3 -6 -8 -3 -4 3 -84 15 -177 26 l-169 22 -125 126 c-69
70 -175 179 -235 242 -61 64 -156 164 -212 222 -92 95 -121 138 -94 138 5 0
106 -73 223 -162z m-722 115 c0 -23 -59 -89 -315 -358 -312 -327 -316 -330
-363 -336 -161 -23 -213 -30 -264 -37 -32 -5 -58 -5 -58 0 0 4 3 8 8 8 4 0 19
10 34 23 14 12 122 94 238 182 117 88 325 246 464 352 138 106 252 192 254
193 1 0 2 -12 2 -27z m721 -268 c74 -77 189 -198 257 -269 68 -70 121 -130
118 -133 -3 -3 -54 -1 -113 5 -59 6 -162 14 -228 17 -66 3 -153 8 -192 11
l-73 6 0 301 0 302 48 -50 c27 -28 109 -113 183 -190z m-721 -89 l0 -283 -127
-7 c-71 -4 -200 -14 -287 -21 -88 -8 -161 -14 -162 -12 -3 3 31 39 336 357
113 118 213 223 221 232 7 10 15 17 17 18 1 0 2 -128 2 -284z"/>
<path d="M1490 3379 c-52 -5 -127 -11 -165 -14 l-70 -6 -38 -51 c-83 -113 -21
-204 153 -224 36 -4 64 -12 67 -20 2 -7 -16 -51 -42 -98 -94 -174 -59 -221
205 -276 117 -24 190 -48 190 -62 0 -14 -58 -67 -109 -101 -48 -32 -58 -49
-45 -85 22 -62 123 -88 409 -107 308 -21 435 -47 435 -91 0 -24 -50 -44 -180
-69 -253 -51 -337 -94 -267 -139 47 -31 211 -36 1094 -36 993 0 1161 8 1180
57 15 38 -56 67 -282 114 -55 12 -109 23 -120 26 -35 8 -69 39 -62 57 14 36
132 60 397 81 188 15 312 34 375 57 39 15 75 47 75 68 0 17 -61 79 -123 124
-22 16 -37 35 -35 44 4 19 82 45 218 72 138 28 170 39 198 67 21 21 24 31 19
68 -4 24 -25 82 -48 128 -23 46 -40 91 -36 100 3 8 24 18 46 22 89 15 189 64
210 103 17 31 -37 138 -83 163 -18 11 -425 43 -433 35 -5 -4 13 -26 40 -48 60
-51 62 -77 7 -117 -22 -16 -88 -50 -148 -75 -98 -43 -152 -81 -152 -107 0 -12
29 -41 118 -117 86 -74 83 -89 -28 -121 -55 -16 -216 -39 -315 -46 -164 -11
-264 -39 -282 -78 -31 -66 46 -103 263 -128 54 -6 113 -17 131 -24 41 -17 43
-46 6 -73 -60 -42 -96 -46 -359 -43 l-252 2 -21 -27 c-11 -15 -21 -32 -21 -39
0 -45 -204 -76 -500 -77 -320 -2 -485 25 -515 82 -21 40 -61 50 -214 50 -230
1 -342 27 -349 83 -4 35 19 46 141 63 196 27 279 59 285 107 6 53 -91 90 -280
107 -283 25 -381 43 -408 75 -18 22 8 56 88 114 125 91 120 118 -28 181 -131
55 -220 112 -220 141 0 12 20 41 45 67 25 24 45 46 45 48 0 6 -104 2 -210 -7z
m1897 -1200 c182 -11 280 -27 276 -45 -7 -36 -432 -63 -737 -45 -220 12 -316
26 -316 46 0 41 429 65 777 44z"/>
<path d="M2870 1910 l-35 -6 40 -10 c51 -12 387 -12 440 0 l40 9 -40 8 c-49
10 -396 9 -445 -1z"/>
<path d="M1230 1551 l0 -30 300 -3 300 -3 0 28 0 27 -284 0 c-156 0 -291 3
-300 6 -12 5 -16 -1 -16 -25z"/>
<path d="M2140 1375 l0 -205 -45 5 c-44 4 -45 4 -45 -25 l0 -30 85 0 85 0 0
230 0 230 -40 0 -40 0 0 -205z"/>
<path d="M2763 1568 c2 -7 8 -23 11 -36 l8 -23 -116 3 -116 3 0 -32 0 -33 120
0 120 0 0 -36 0 -35 -114 3 -115 3 -3 -113 -3 -112 43 0 42 0 0 85 0 85 75 0
74 0 3 -107 3 -108 37 -3 37 -3 3 108 3 108 78 3 77 3 0 -61 0 -60 -40 0 c-37
0 -40 -2 -40 -27 l0 -28 80 3 80 4 0 108 0 109 -117 3 -118 3 -3 33 -3 32 131
0 131 0 -4 28 -4 27 -126 3 -126 3 -12 34 c-12 33 -16 35 -57 35 -31 0 -43 -4
-39 -12z"/>
<path d="M3318 1550 c5 -34 -13 -42 -23 -10 -5 16 -15 20 -46 20 -36 0 -40 -2
-34 -20 4 -14 2 -20 -9 -20 -11 0 -15 -7 -12 -22 3 -25 3 -25 76 -27 58 -1 69
-21 12 -21 -33 0 -40 -4 -64 -45 l-28 -45 43 0 c37 0 45 4 62 33 l20 32 3 -38
c3 -37 4 -38 40 -35 35 3 37 5 42 42 l5 39 17 -36 c16 -34 21 -37 58 -37 l40
0 -22 45 c-20 42 -25 45 -60 45 -21 0 -38 5 -38 10 0 6 27 10 60 10 57 0 60 1
60 25 0 16 -6 25 -15 25 -13 0 -14 4 -5 20 10 18 8 20 -29 20 -31 0 -41 -4
-46 -20 -9 -29 -23 -25 -27 8 -3 24 -8 27 -44 30 -40 3 -41 3 -36 -28z"/>
<path d="M3907 1546 c5 -35 5 -36 -26 -36 -28 0 -31 -3 -31 -30 0 -27 3 -30
30 -30 l30 0 0 -79 0 -78 -30 -6 c-28 -6 -30 -10 -30 -49 0 -33 3 -39 12 -30
7 7 21 12 31 12 17 0 19 -6 15 -55 l-5 -54 41 2 41 3 3 67 c3 59 5 67 22 67
17 0 20 7 20 41 0 36 -2 40 -20 34 -19 -6 -20 -2 -20 59 0 59 2 66 20 66 28 0
28 50 1 57 -14 3 -21 15 -23 37 -3 29 -6 31 -45 34 l-42 3 6 -35z"/>
<path d="M4048 1415 c-1 -91 -3 -195 -3 -232 l0 -68 35 0 c30 0 35 4 37 25 1
14 5 64 8 113 l7 87 59 0 c52 0 59 -2 59 -20 0 -18 -7 -20 -55 -20 l-56 0 3
-92 3 -93 143 -2 142 -2 0 95 0 94 -50 0 c-43 0 -50 3 -50 20 0 18 7 20 55 20
52 0 55 1 55 25 0 24 -3 25 -55 25 -48 0 -55 2 -55 20 0 17 -7 20 -44 20 -39
0 -44 -2 -39 -20 5 -18 0 -20 -56 -20 l-61 0 0 30 0 30 160 0 161 0 -3 63 -3
62 -197 3 -198 2 -2 -165z m322 95 c0 -19 -7 -20 -120 -20 -113 0 -120 1 -120
20 0 19 7 20 120 20 113 0 120 -1 120 -20z m-20 -305 l0 -45 -65 0 -65 0 0 45
0 45 65 0 65 0 0 -45z"/>
<path d="M4570 1570 c-34 -5 -35 -6 -38 -55 -2 -44 -18 -272 -25 -362 -3 -31
-1 -33 30 -33 38 0 39 2 48 123 l7 77 215 0 215 0 -4 -100 -3 -100 43 0 42 0
0 125 0 125 -249 0 c-138 0 -252 4 -255 8 -2 4 -1 14 3 20 6 10 67 12 255 10
l247 -3 -3 84 -3 84 -245 1 c-135 0 -261 -1 -280 -4z m450 -80 l0 -40 -210 0
c-229 0 -220 -3 -204 58 6 22 7 22 210 22 l204 0 0 -40z"/>
<path d="M3563 1523 c-6 -27 -14 -56 -18 -65 -6 -15 -1 -18 33 -18 32 0 42 4
47 20 5 15 15 20 41 20 33 0 34 -1 34 -41 0 -37 -25 -99 -40 -99 -4 0 -13 11
-20 25 -11 20 -21 25 -52 25 -21 0 -38 -2 -38 -5 0 -2 16 -29 35 -59 19 -30
35 -58 35 -61 0 -4 -18 -37 -40 -75 -22 -38 -40 -71 -40 -75 0 -3 17 -5 37 -3
33 3 41 9 62 46 l24 44 29 -46 c26 -40 35 -46 64 -46 19 0 34 5 34 10 0 6 -20
41 -45 78 l-46 69 36 62 c25 46 35 75 35 107 0 24 5 44 10 44 6 0 10 11 10 25
0 24 -2 25 -70 25 -63 0 -70 2 -70 20 0 16 -7 20 -38 20 -36 0 -38 -1 -49 -47z"/>
<path d="M1900 1488 c0 -27 2 -28 56 -28 53 0 55 -1 48 -22 -4 -13 -31 -88
-59 -168 l-53 -145 35 -3 c19 -2 37 -1 40 2 7 7 143 379 140 382 -1 1 -48 4
-105 6 l-102 3 0 -27z"/>
<path d="M2349 1513 l-96 -4 71 -194 70 -195 38 0 c21 0 38 3 38 8 -1 4 -27
79 -59 167 l-58 160 53 3 c52 3 54 4 54 32 0 17 -3 29 -7 28 -5 -1 -51 -4
-104 -5z"/>
<path d="M1234 1474 c3 -9 6 -94 6 -190 l0 -174 35 0 35 0 1 58 c1 31 1 103 1
160 l1 102 58 0 59 0 -1 -107 -2 -108 -14 78 -15 77 -35 0 c-35 0 -35 -1 -29
-32 3 -18 9 -56 13 -85 l6 -53 39 0 40 0 -4 -45 -3 -45 42 0 43 0 0 190 0 190
-141 0 c-125 0 -140 -2 -135 -16z"/>
<path d="M1550 1300 l0 -190 40 0 40 0 0 160 0 160 60 0 61 0 -3 -160 -3 -160
43 0 42 0 0 190 0 190 -140 0 -140 0 0 -190z"/>
<path d="M1650 1338 c5 -18 11 -57 15 -85 7 -52 7 -53 41 -53 39 0 39 0 22
100 l-12 70 -37 0 c-37 0 -37 0 -29 -32z"/>
<path d="M3220 1330 c0 -5 -7 -10 -15 -10 -9 0 -15 -9 -15 -25 0 -16 6 -25 15
-25 9 0 15 -9 15 -24 0 -18 10 -31 40 -47 47 -26 38 -39 -27 -39 -39 0 -43 -2
-43 -25 0 -24 3 -25 55 -25 31 0 69 7 85 15 27 14 33 14 60 0 16 -8 54 -15 85
-15 51 0 55 2 55 23 0 20 -4 23 -34 19 -18 -2 -44 1 -56 8 -22 12 -22 13 19
37 31 18 41 30 41 50 0 18 4 24 15 19 11 -4 15 2 15 25 0 18 -4 28 -10 24 -6
-3 -13 1 -16 9 -8 20 -84 23 -84 3 0 -18 -121 -18 -128 1 -4 14 -72 17 -72 2z
m205 -69 c6 -10 -46 -51 -65 -51 -20 0 -70 34 -70 47 0 15 125 19 135 4z"/>
<path d="M4610 1218 l5 -83 188 -3 187 -2 0 85 0 85 -192 0 -193 0 5 -82z
m300 -8 l0 -30 -110 0 -110 0 0 30 0 30 110 0 110 0 0 -30z"/>
<path d="M1830 810 l0 -90 55 0 c30 0 55 5 55 10 0 6 -16 10 -35 10 l-35 0 0
80 c0 73 -2 80 -20 80 -19 0 -20 -7 -20 -90z"/>
<path d="M1960 810 c0 -83 1 -90 20 -90 19 0 20 7 20 90 0 83 -1 90 -20 90
-19 0 -20 -7 -20 -90z"/>
<path d="M2046 884 c-32 -32 -18 -65 37 -88 27 -11 38 -21 35 -33 -3 -14 -13
-18 -46 -18 -49 0 -57 -20 -12 -30 45 -10 84 13 88 53 3 30 0 34 -43 52 -54
23 -55 44 -2 48 24 2 37 8 37 18 0 20 -74 19 -94 -2z"/>
<path d="M2180 810 c0 -83 1 -90 20 -90 17 0 20 7 20 40 l0 40 40 0 40 0 0
-40 c0 -29 4 -40 15 -40 12 0 15 17 15 90 0 73 -3 90 -15 90 -10 0 -15 -11
-15 -35 0 -34 -1 -35 -40 -35 -39 0 -40 1 -40 35 0 28 -4 35 -20 35 -19 0 -20
-7 -20 -90z"/>
<path d="M2370 821 c0 -91 10 -106 72 -106 59 0 78 28 78 116 0 62 -2 69 -20
69 -17 0 -19 -8 -22 -77 -3 -73 -5 -78 -26 -81 -40 -6 -52 14 -52 89 0 55 -3
69 -15 69 -12 0 -15 -15 -15 -79z"/>
<path d="M2550 810 c0 -83 1 -90 20 -90 19 0 20 7 20 90 0 83 -1 90 -20 90
-19 0 -20 -7 -20 -90z"/>
<path d="M2730 811 l0 -91 50 0 c67 0 90 22 90 88 0 68 -15 84 -84 90 l-56 4
0 -91z m100 40 c18 -34 12 -78 -12 -95 -46 -33 -58 -22 -58 49 l0 65 30 0 c19
0 33 -7 40 -19z"/>
<path d="M2952 883 c-5 -10 -21 -51 -36 -90 -24 -69 -24 -73 -7 -73 10 0 21 8
24 19 8 33 82 34 92 0 4 -10 15 -19 25 -19 17 0 16 6 -11 82 -17 45 -32 85
-35 90 -9 14 -43 8 -52 -9z m42 -45 c10 -39 7 -48 -19 -48 -29 0 -28 -2 -14
39 13 37 24 40 33 9z"/>
<path d="M3070 885 c0 -9 9 -15 25 -15 24 0 25 -2 25 -75 0 -60 3 -75 15 -75
12 0 15 15 15 75 l0 75 30 0 c20 0 30 5 30 15 0 12 -14 15 -70 15 -56 0 -70
-3 -70 -15z"/>
<path d="M3244 818 c-16 -45 -30 -86 -32 -90 -2 -4 4 -8 12 -8 9 0 20 10 25
23 8 21 25 24 83 18 4 -1 10 -10 13 -21 3 -11 15 -20 25 -20 16 0 15 8 -15 88
-28 73 -37 87 -57 90 -22 3 -27 -5 -54 -80z m76 -10 c0 -13 -8 -18 -26 -18
-20 0 -25 4 -20 16 3 9 9 27 12 41 l7 26 13 -24 c7 -13 13 -32 14 -41z"/>
<path d="M3510 810 l0 -90 55 0 c49 0 57 3 67 25 9 19 8 29 -5 49 -10 15 -13
27 -7 31 17 11 11 54 -9 65 -11 5 -38 10 -60 10 l-41 0 0 -90z m85 35 c0 -14
-8 -21 -27 -23 -24 -3 -28 0 -28 23 0 23 4 26 28 23 19 -2 27 -9 27 -23z m-7
-54 c23 -14 10 -46 -21 -49 -24 -3 -27 0 -27 27 0 32 19 41 48 22z"/>
<path d="M3672 818 c3 -79 4 -83 31 -96 31 -15 79 -8 102 15 21 20 22 163 1
163 -19 0 -27 -27 -25 -87 2 -60 -4 -73 -36 -73 -33 0 -45 27 -45 99 0 48 -3
61 -15 61 -13 0 -15 -14 -13 -82z"/>
<path d="M3860 810 c0 -73 3 -90 15 -90 10 0 15 11 15 35 0 44 14 44 42 0 13
-19 31 -35 41 -35 18 0 17 2 -2 34 -19 29 -19 35 -6 46 8 7 15 27 15 46 0 40
-21 54 -79 54 l-41 0 0 -90z m85 30 c0 -20 -6 -26 -27 -28 -25 -3 -28 0 -28
28 0 28 3 31 28 28 21 -2 27 -8 27 -28z"/>
<path d="M4020 810 l0 -90 55 0 c30 0 55 5 55 10 0 6 -18 10 -40 10 -38 0 -40
2 -40 30 0 28 3 30 35 30 19 0 35 5 35 10 0 6 -16 10 -35 10 -31 0 -35 3 -35
25 0 23 4 25 40 25 29 0 40 4 40 15 0 12 -13 15 -55 15 l-55 0 0 -90z"/>
<path d="M4203 883 c-3 -10 -19 -51 -34 -90 -25 -68 -26 -73 -9 -73 10 0 22 9
25 20 7 22 6 22 55 24 29 1 36 -3 38 -21 2 -15 10 -23 24 -23 11 0 18 4 16 8
-1 4 -16 45 -32 90 -26 71 -33 82 -53 82 -13 0 -26 -8 -30 -17z m56 -85 c1 -5
-10 -8 -24 -8 -28 0 -31 13 -14 57 l11 28 13 -35 c8 -19 14 -38 14 -42z"/>
<path d="M4340 827 c0 -94 12 -112 75 -112 63 0 75 18 75 112 0 58 -3 73 -15
73 -12 0 -15 -13 -15 -61 0 -72 -12 -99 -45 -99 -33 0 -45 27 -45 99 0 48 -3
61 -15 61 -12 0 -15 -15 -15 -73z"/>
</g>
</svg>
